# AST/ASF file generated using VICON BodyLanguage
# -----------------------------------------------
:version 1.10
:name VICON
:units
  mass 1.0
  length 0.45
  angle deg
:documentation
   .ast/.asf automatically generated from VICON data using
   VICON BodyBuilder and BodyLanguage model FoxedUp or BRILLIANT.MOD
:root
   order TX TY TZ RX RY RZ
   axis XYZ
   position 0 0 0  
   orientation 0 0 0 
:bonedata
  begin
     id 1 
     name lhipjoint
     direction 0.589753 -0.68606 0.426044 
     length 2.54082 
     axis 0 0 0  XYZ
  end
  begin
     id 2 
     name lfemur
     direction 0.34202 -0.939693 0  
     length 7.04539  
     axis 0 0 20  XYZ
    dof rx ry rz
    limits (-160.0 20.0)
           (-70.0 70.0)
           (-60.0 70.0)
  end
  begin
     id 3 
     name ltibia
     direction 0.34202 -0.939693 0   
     length 7.83772   
     axis 0 0 20   XYZ
    dof rx
    limits (-10.0 170.0)
  end
  begin
     id 4 
     name lfoot
     direction 0.0596604 -0.163915 0.984669   
     length 2.39542   
     axis -90 7.62852e-016 20   XYZ
    dof rx rz
    limits (-45.0 90.0)
           (-70.0 20.0)
  end
  begin
     id 5 
     name ltoes
     direction 1.53514e-011 -4.21954e-011 1   
     length 1.2047   
     axis -90 7.62852e-016 20   XYZ
    dof rx
    limits (-90.0 20.0)
  end
  begin
     id 6 
     name rhipjoint
     direction -0.580585 -0.69168 0.429534   
     length 2.52018  
     axis 0 0 0  XYZ 
  end
  begin
     id 7 
     name rfemur
     direction -0.34202 -0.939693 0   
     length 7.0101   
     axis 0 0 -20   XYZ
    dof rx ry rz
    limits (-160.0 20.0)
           (-70.0 70.0)
           (-70.0 60.0)
  end
  begin
     id 8 
     name rtibia
     direction -0.34202 -0.939693 0   
     length 7.70628   
     axis 0 0 -20   XYZ
    dof rx
    limits (-10.0 170.0)
 end
 begin
     id 9 
     name rfoot
     direction -0.0696237 -0.19129 0.979061   
     length 2.52466  
     axis -90 -7.62852e-016 -20   XYZ
    dof rx rz
    limits (-45.0 90.0)
           (-20.0 70.0)
  end
  begin
     id 10 
     name rtoes
     direction -1.53519e-011 -4.21793e-011 1   
     length 1.266   
     axis -90 -7.62852e-016 -20   XYZ
    dof rx
    limits (-90.0 20.0)
  end
  begin
     id 11 
     name lowerback
     direction 0.00381965 0.995707 -0.0924856   
     length 2.20825   
     axis 0 0 0   XYZ
    dof rx ry rz
    limits (-20.0 45.0)
           (-30.0 30.0)
           (-30.0 30.0)
  end
  begin
     id 12 
     name upperback
     direction -0.0139043 0.999634 -0.0231929   
     length 2.21517   
     axis 0 0 0   XYZ
    dof rx ry rz
    limits (-20.0 45.0)
           (-30.0 30.0)
           (-30.0 30.0)
  end
  begin
     id 13 
     name thorax
     direction -0.0143933 0.999691 0.0202892   
     length 2.22911   
     axis 0 0 0   XYZ
    dof rx ry rz
    limits (-20.0 45.0)
           (-30.0 30.0)
           (-30.0 30.0)
  end
  begin
     id 14 
     name lowerneck
     direction -0.0251153 0.981819 0.188153   
     length 1.61782   
     axis 0 0 0   XYZ
    dof rx ry rz
    limits (-20.0 45.0)
           (-30.0 30.0)
           (-30.0 30.0)
  end
  begin
     id 15 
     name upperneck
     direction 0.0563891 0.969357 -0.239095   
     length 1.64526   
     axis 0 0 0   XYZ
    dof rx ry rz
    limits (-20.0 45.0)
           (-30.0 30.0)
           (-30.0 30.0)
  end
  begin
     id 16
     name head
     direction 0.0208328 0.99459 -0.101773  
     length 1.67436  
     axis 0 0 0   XYZ
    dof rx ry rz
    limits (-20.0 45.0)
           (-30.0 30.0)
           (-30.0 30.0)
  end
  begin
     id 17 
     name lclavicle
     direction 0.917689 0.397224 0.00772059  
     length 3.31102  
     axis 0 0 0   XYZ
    dof ry rz
    limits (-20.0 10.0)
           (0.0 20.0)
  end
  begin
     id 18 
     name lhumerus
     direction 1 -4.4896e-011 2.32308e-027   
     length 5.25537   
     axis 180 -30 -90   XYZ
    dof rx ry rz
    limits (-60.0 90.0)
           (-90.0 90.0)
           (-90.0 90.0)
  end
  begin
     id 19
     name lradius
     direction 1 -4.49005e-011 -2.04271e-027   
     length 3.38855   
     axis 180 -30 -90   XYZ
    dof rx
    limits (-10.0 170.0)
  end
  begin
     id 20
     name lwrist
     direction 1 -4.48892e-011 2.56952e-028   
     length 1.69428   
     axis -5.12785e-016 90 90   XYZ
    dof ry
    limits (-180.0 0.0)
 end
  begin
     id 21 
     name lhand
     direction 1 -4.48966e-011 5.13905e-028   
     length 0.614516   
     axis -3.27915e-016 90 90   XYZ
    dof rx rz
    limits (-90.0 90.0)
           (-45.0 45.0)
  end
  begin
     id 22 
     name lfingers
     direction 1 -4.48979e-011 1.02781e-027   
     length 0.495439   
     axis -6.5583e-016 90 90   XYZ
    dof rx
    limits (0.0 90.0)
  end
  begin
     id 23
     name lthumb
     direction 0.707107 -6.35001e-011 0.707107   
     length 0.711354   
     axis -90 45 2.85299e-015   XYZ
    dof rx rz
    limits (-45.0 45.0)
           (-45.0 45.0)
  end
  begin
     id 24 
     name rclavicle
     direction -0.938556 0.342765 -0.0403177   
     length 3.27019  
     axis 0 0 0   XYZ 
    dof ry rz
    limits (-10.0 20.0)
           (-20.0 0.0)
  end
  begin
     id 25 
     name rhumerus
     direction -1 -4.48966e-011 2.52291e-027  
     length 5.38183   
     axis 180 30 90   XYZ
    dof rx ry rz
    limits (-90.0 60.0)
           (-90.0 90.0)
           (-90.0 90.0)
  end
  begin
     id 26 
     name rradius
     direction -1 -4.4896e-011 1.5797e-027   
     length 3.16988   
     axis 180 30 90   XYZ
    dof rx
    limits (-10.0 170.0)
  end
  begin
     id 27 
     name rwrist
     direction -1 -4.48947e-011 2.56952e-028   
     length 1.58494   
     axis -5.12785e-016 -90 -90   XYZ
    dof ry
    limits (-180.0 0.0)
  end
  begin
     id 28
     name rhand
     direction -1 -4.49098e-011 5.13905e-028   
     length 0.637679   
     axis -3.27915e-016 -90 -90   XYZ
    dof rx rz
    limits (-90.0 90.0)
           (-45.0 45.0)
  end
  begin
     id 29
     name rfingers
     direction -1 -4.49026e-011 1.02781e-027   
     length 0.514113   
     axis -6.5583e-016 -90 -90   XYZ
    dof rx
    limits (0.0 90.0)
  end
  begin
     id 30
     name rthumb
     direction -0.707107 -6.3491e-011 0.707107   
     length 0.738167   
     axis -90 -45 -2.85299e-015   XYZ
    dof rx rz
    limits (-45.0 45.0)
           (-45.0 45.0)
  end
:hierarchy
  begin
    root lhipjoint rhipjoint lowerback
    lhipjoint lfemur
    lfemur ltibia
    ltibia lfoot
    lfoot ltoes
    rhipjoint rfemur
    rfemur rtibia
    rtibia rfoot
    rfoot rtoes
    lowerback upperback
    upperback thorax
    thorax lowerneck lclavicle rclavicle
    lowerneck upperneck
    upperneck head
    lclavicle lhumerus
    lhumerus lradius
    lradius lwrist
    lwrist lhand lthumb
    lhand lfingers
    rclavicle rhumerus
    rhumerus rradius
    rradius rwrist
    rwrist rhand rthumb
    rhand rfingers
  end

#!OML:ASF H:\Swim\Project 1\Capture day 1\Session 1\swimmer.ASF
:FULLY-SPECIFIED
:DEGREES
4061
root 1.85847 17.342 -23.2854 116.194 -10.216 22.3248
lowerback -10.4121 -6.96127 -10.1484
upperback -9.45726 -8.84427 0.454868
thorax -2.72603 -4.07728 5.28673
lowerneck -6.27983 -8.20551 -21.3143
upperneck -13.0432 -8.83296 21.1977
head -0.640507 -4.19987 10.0046
rclavicle 7.95139e-014 2.1916e-014
rhumerus 68.4801 -37.9839 -15.1186
rradius 33.0869
rwrist -180.829
rhand -20.6868 8.41058
rfingers 7.12502
rthumb 5.67674 -21.4934
lclavicle 7.95139e-014 2.1916e-014
lhumerus 60.6575 28.0766 3.60867
lradius 32.5156
lwrist -3.92279
lhand -17.5402 16.8184
lfingers 7.12502
lthumb 8.71409 46.6186
rfemur -24.5246 -14.8542 -2.93499
rtibia 41.2166
rfoot -23.8684 -25.133
rtoes 32.4073
lfemur -32.2092 -15.1201 -18.1723
ltibia 10.9726
lfoot 17.4893 11.6695
ltoes 2.7799
4062
root 1.84423 17.3266 -23.2945 116.798 -10.3207 22.1537
lowerback -10.7094 -6.96777 -10.4026
upperback -9.41069 -8.78895 0.515334
thorax -2.48624 -4.04836 5.4527
lowerneck -6.07652 -8.19071 -21.2295
upperneck -13.3929 -8.8232 21.222
head -0.776501 -4.21123 10.0213
rclavicle 3.18055e-015 -2.48481e-014
rhumerus 67.281 -38.4304 -14.5795
rradius 33.1482
rwrist -181.049
rhand -21.0644 8.48245
rfingers 7.12502
rthumb 5.31212 -21.431
lclavicle 3.18055e-015 -2.48481e-014
lhumerus 59.5817 27.9564 3.29453
lradius 32.5133
lwrist -3.87232
lhand -17.3145 16.943
lfingers 7.12502
lthumb 8.93183 46.7339
rfemur -25.0322 -12.3378 -3.23354
rtibia 39.2684
rfoot -27.3926 -26.0821
rtoes 30.9765
lfemur -31.5344 -15.9683 -17.4512
ltibia 7.06735
lfoot 17.7647 11.8454
ltoes 2.30718
4063
root 1.82606 17.3107 -23.3009 117.203 -10.3269 21.9107
lowerback -10.8288 -6.92467 -10.646
upperback -9.32967 -8.68566 0.562537
thorax -2.31651 -3.99249 5.62596
lowerneck -5.90933 -8.184 -21.1223
upperneck -13.6785 -8.82175 21.2762
head -0.885009 -4.22717 10.04
rclavicle -7.95139e-015 2.79292e-014
rhumerus 65.977 -38.8078 -13.9867
rradius 33.1581
rwrist -181.633
rhand -21.3946 8.60659
rfingers 7.12502
rthumb 4.99333 -21.3146
lclavicle -7.95139e-015 2.79292e-014
lhumerus 58.4718 27.7749 2.91945
lradius 32.5308
lwrist -3.79888
lhand -17.0009 17.0557
lfingers 7.12502
lthumb 9.23446 46.8335
rfemur -25.3979 -9.37861 -3.62948
rtibia 37.5464
rfoot -30.931 -26.8266
rtoes 29.4111
lfemur -28.9079 -16.6118 -16.5421
ltibia -5.96354e-016
lfoot 19.3913 13.0011
ltoes 2.10145
4064
root 1.80396 17.2941 -23.3058 117.427 -10.2516 21.5989
lowerback -10.7979 -6.83926 -10.8931
upperback -9.20961 -8.54052 0.59743
thorax -2.19464 -3.91355 5.81045
lowerneck -5.7843 -8.18586 -21.0089
upperneck -13.9255 -8.82407 21.3723
head -0.971493 -4.24492 10.0684
rclavicle -6.04305e-014 -6.09275e-014
rhumerus 64.5301 -39.1096 -13.239
rradius 33.1146
rwrist -182.509
rhand -21.6848 8.77064
rfingers 7.12502
rthumb 4.7131 -21.1569
lclavicle -6.04305e-014 -6.09275e-014
lhumerus 57.3075 27.551 2.46439
lradius 32.5823
lwrist -3.69232
lhand -16.619 17.1437
lfingers 7.12502
lthumb 9.60294 46.9049
rfemur -25.6576 -5.96356 -4.12374
rtibia 36.0513
rfoot -34.447 -27.4282
rtoes 27.8922
lfemur -29.6687 -17.1949 -15.7114
ltibia 1.19271e-015
lfoot 17.9003 13.1984
ltoes 2.8678
4065
root 1.77972 17.2773 -23.3109 117.512 -10.1215 21.2746
lowerback -10.6574 -6.73231 -11.12
upperback -9.07254 -8.38145 0.626249
thorax -2.12015 -3.82673 5.99194
lowerneck -5.68842 -8.19366 -20.8717
upperneck -14.1091 -8.83868 21.4158
head -1.03826 -4.26691 10.07
rclavicle 5.40694e-014 4.55217e-014
rhumerus 62.9216 -39.2932 -12.2481
rradius 33.0186
rwrist -183.6
rhand -21.9031 8.96779
rfingers 7.12502
rthumb 4.50232 -20.9644
lclavicle 5.40694e-014 4.55217e-014
lhumerus 56.1004 27.2763 1.95629
lradius 32.6537
lwrist -3.55321
lhand -16.1798 17.1818
lfingers 7.12502
lthumb 10.0267 46.923
rfemur -25.8464 -2.07768 -4.71974
rtibia 34.7761
rfoot -38.0895 -27.9345
rtoes 26.7183
lfemur -30.1959 -17.7461 -14.8755
ltibia -6.55989e-015
lfoot 16.2513 13.799
ltoes 3.86548
4066
root 1.75438 17.26 -23.3178 117.456 -9.9689 20.9584
lowerback -10.4129 -6.61425 -11.3356
upperback -8.91602 -8.22189 0.646612
thorax -2.08456 -3.73918 6.16924
lowerneck -5.62478 -8.20977 -20.7255
upperneck -14.2536 -8.86588 21.4093
head -1.09082 -4.29241 10.0488
rclavicle -6.99722e-014 9.93923e-015
rhumerus 61.1682 -39.3382 -10.9911
rradius 32.8686
rwrist -184.813
rhand -22.0472 9.17646
rfingers 7.12502
rthumb 4.36323 -20.7586
lclavicle -6.99722e-014 9.93923e-015
lhumerus 54.8455 26.961 1.41079
lradius 32.742
lwrist -3.38029
lhand -15.7291 17.1608
lfingers 7.12502
lthumb 10.4615 46.8805
rfemur -25.9732 2.26529 -5.43197
rtibia 33.7182
rfoot -42.0201 -28.3282
rtoes 26.1186
lfemur -30.5122 -18.3111 -14.0684
ltibia 3.21037e-014
lfoot 14.5651 14.6854
ltoes 5.16149
4067
root 1.72892 17.242 -23.3284 117.272 -9.79183 20.6828
lowerback -10.0866 -6.49178 -11.5127
upperback -8.73913 -8.07041 0.663466
thorax -2.07551 -3.65722 6.32829
lowerneck -5.5901 -8.23443 -20.5718
upperneck -14.3707 -8.90661 21.3432
head -1.13375 -4.32154 10.0024
rclavicle -1.74931e-014 -2.68359e-015
rhumerus 59.3294 -39.2563 -9.54382
rradius 32.6765
rwrist -186.033
rhand -22.1493 9.37527
rfingers 7.12502
rthumb 4.26464 -20.5618
lclavicle -1.74931e-014 -2.68359e-015
lhumerus 53.5496 26.609 0.833985
lradius 32.8384
lwrist -3.15451
lhand -15.3238 17.0939
lfingers 7.12502
lthumb 10.8524 46.7935
rfemur -26.0632 6.99617 -6.21705
rtibia 32.8664
rfoot -46.3023 -28.5392
rtoes 26.1435
lfemur -30.6487 -18.9255 -13.2778
ltibia -5.30755e-014
lfoot 12.6957 15.8853
ltoes 6.90203
